<!-- Generated by IcoMoon.io -->
<svg version="1.1" xmlns="http://www.w3.org/2000/svg" width="1024" height="1024" viewBox="0 0 1024 1024">
<g id="icomoon-ignore">
</g>
<path fill="#000" d="M746.667 123.903c-100.624 1.615-187.857 57.412-233.958 139.428l-0.709 1.372c-46.81-83.388-134.043-139.185-234.442-140.797l-0.224-0.003c-154.725 6.931-277.54 134.053-277.54 289.86 0 3.847 0.075 7.677 0.223 11.488l-0.017-0.548c0 194.005 204.203 405.888 375.467 549.547 36.633 30.943 84.387 49.75 136.533 49.75s99.901-18.808 136.849-50.010l-0.316 0.26c171.264-143.659 375.467-355.541 375.467-549.547 0.131-3.263 0.206-7.093 0.206-10.94 0-155.807-122.815-282.929-276.917-289.838l-0.623-0.022zM593.707 908.97c-21.911 18.545-50.492 29.82-81.707 29.82s-59.795-11.275-81.893-29.974l0.186 0.154c-219.221-183.936-344.96-360.405-344.96-484.267-0.19-3.301-0.298-7.162-0.298-11.049 0-108.71 84.7-197.637 191.706-204.388l0.592-0.030c107.599 6.781 192.298 95.708 192.298 204.418 0 3.887-0.108 7.748-0.322 11.581l0.024-0.532c0 23.564 19.103 42.667 42.667 42.667s42.667-19.103 42.667-42.667v0c-0.19-3.301-0.298-7.162-0.298-11.049 0-108.71 84.7-197.637 191.706-204.388l0.592-0.030c107.599 6.781 192.298 95.708 192.298 204.418 0 3.887-0.108 7.748-0.322 11.581l0.024-0.532c0 123.861-125.739 300.331-344.96 484.096z"></path>
</svg>
